<?xml version="1.0" standalone="no"?>
<!DOCTYPE svg PUBLIC "-//W3C//DTD SVG 20010904//EN"
 "http://www.w3.org/TR/2001/REC-SVG-20010904/DTD/svg10.dtd">
<svg version="1.0" xmlns="http://www.w3.org/2000/svg"
 width="540.000000pt" height="540.000000pt" viewBox="0 0 540.000000 540.000000"
 preserveAspectRatio="xMidYMid meet">
<metadata>
Created by potrace 1.16, written by Peter Selinger 2001-2019
</metadata>
<g transform="translate(0.000000,540.000000) scale(0.100000,-0.100000)"
fill="#000000" stroke="none">
<path d="M2260 5349 c-938 -82 -1663 -417 -1791 -828 -23 -75 -27 -193 -9
-262 35 -131 163 -291 327 -408 109 -78 348 -196 508 -251 665 -228 1535 -273
2289 -119 279 57 494 128 711 234 159 78 263 146 361 237 216 203 272 436 155
655 -202 379 -892 669 -1766 743 -140 11 -647 11 -785 -1z"/>
<path d="M441 3720 c-1 -195 4 -386 9 -425 20 -140 122 -297 270 -416 559
-448 1778 -632 2830 -428 373 73 708 197 940 349 119 78 273 231 317 315 62
119 63 129 62 559 -1 252 -4 375 -10 346 -5 -25 -27 -83 -50 -130 -34 -68 -60
-102 -133 -176 -290 -290 -822 -485 -1541 -564 -159 -18 -630 -24 -810 -11
-775 57 -1395 272 -1696 589 -89 93 -151 197 -165 277 -18 106 -23 43 -23
-285z"/>
<path d="M443 2655 c3 -379 4 -403 25 -466 99 -299 516 -570 1108 -717 816
-204 1843 -157 2534 115 365 144 602 321 708 528 50 99 52 122 51 540 -1 215
-4 379 -6 365 -61 -364 -564 -684 -1305 -829 -327 -64 -453 -75 -883 -76 -411
0 -502 6 -779 51 -742 121 -1286 413 -1416 760 -11 30 -20 65 -20 77 0 12 -5
29 -10 37 -7 10 -10 -112 -7 -385z"/>
<path d="M442 1625 c4 -379 6 -403 26 -458 37 -100 82 -169 171 -258 132 -131
308 -241 538 -333 906 -363 2293 -332 3118 69 290 142 483 320 550 510 l25 70
-1 400 c-1 283 -4 385 -11 350 -42 -226 -288 -455 -659 -614 -899 -385 -2319
-368 -3164 39 -315 151 -515 347 -570 555 -8 32 -17 61 -21 64 -3 3 -4 -174
-2 -394z"/>
</g>
</svg>
