<?xml version="1.0" standalone="no"?>
<!DOCTYPE svg PUBLIC "-//W3C//DTD SVG 20010904//EN"
 "http://www.w3.org/TR/2001/REC-SVG-20010904/DTD/svg10.dtd">
<svg version="1.0" xmlns="http://www.w3.org/2000/svg"
 width="512.000000pt" height="512.000000pt" viewBox="0 0 512.000000 512.000000"
 preserveAspectRatio="xMidYMid meet">
<metadata>
Created by potrace 1.16, written by Peter Selinger 2001-2019
</metadata>
<g transform="translate(0.000000,512.000000) scale(0.100000,-0.100000)"
fill="#000000" stroke="none">
<path d="M372 5098 c-23 -11 -58 -39 -78 -61 -68 -81 -65 34 -62 -1802 l3
-1660 29 -53 c16 -28 44 -63 62 -77 74 -56 50 -55 910 -55 l794 0 0 -245 c0
-211 -2 -245 -15 -245 -8 0 -24 -9 -35 -20 -18 -18 -20 -33 -20 -134 l0 -113
-77 -5 c-166 -10 -278 -114 -304 -282 -15 -92 -8 -308 10 -329 12 -16 93 -17
971 -17 880 0 959 1 971 17 11 12 14 58 14 192 l0 176 -33 67 c-56 115 -159
178 -287 178 l-65 0 0 115 c0 102 -2 117 -20 135 -11 11 -27 20 -35 20 -13 0
-15 34 -15 245 l0 245 794 0 c860 0 836 -1 910 55 18 14 46 49 62 77 l29 53 3
1660 c3 1836 6 1721 -62 1802 -20 22 -56 50 -81 62 l-45 21 -2142 0 -2143 -1
-43 -21z m4325 -124 c15 -11 36 -36 45 -55 17 -32 18 -132 18 -1662 0 -1792 4
-1676 -62 -1717 -30 -18 -50 -20 -230 -20 l-198 0 0 95 0 95 123 0 c95 0 128
4 145 16 l22 15 0 1511 c0 1392 -1 1513 -17 1530 -15 17 -90 18 -1981 18
-1815 0 -1967 -1 -1984 -17 -17 -15 -18 -76 -18 -1529 l0 -1513 22 -15 c20
-14 188 -16 1600 -16 l1578 0 0 -95 0 -95 -1652 0 c-1640 0 -1653 0 -1686 20
-66 41 -62 -74 -62 1715 0 1740 -2 1664 48 1709 12 10 36 22 54 26 18 5 972 7
2120 7 l2087 -2 28 -21z m-267 -1719 l0 -1415 -1870 0 -1870 0 0 1415 0 1415
1870 0 1870 0 0 -1415z m-290 -1640 l0 -95 -125 0 -125 0 0 95 0 95 125 0 125
0 0 -95z m-1180 -470 l0 -245 -400 0 -400 0 0 245 0 245 400 0 400 0 0 -245z
m70 -445 l0 -70 -470 0 -470 0 0 70 0 70 470 0 470 0 0 -70z m280 -220 c81
-41 109 -110 110 -267 l0 -93 -861 0 -861 0 4 119 c4 111 6 123 34 167 19 31
44 56 73 71 l44 23 709 0 c688 0 710 -1 748 -20z"/>
<path d="M1008 4203 c-170 -169 -170 -155 -5 -320 103 -103 128 -123 153 -123
43 0 65 20 66 59 1 28 -11 45 -93 127 l-94 94 93 93 c79 79 93 99 94 127 1 37
-29 70 -65 70 -13 0 -68 -47 -149 -127z"/>
<path d="M1488 4308 c-32 -29 -211 -450 -210 -493 0 -16 9 -35 18 -42 20 -15
62 -17 82 -4 18 11 212 466 212 495 0 55 -62 82 -102 44z"/>
<path d="M1666 4309 c-47 -37 -37 -64 69 -169 l95 -94 -95 -97 c-100 -101
-110 -123 -79 -167 10 -15 25 -22 47 -22 28 0 49 17 160 128 104 104 127 133
127 156 0 46 -242 286 -288 286 -5 0 -21 -9 -36 -21z"/>
<path d="M2170 4303 c-49 -19 -66 -75 -32 -106 17 -16 81 -17 719 -17 621 0
702 2 713 16 19 22 16 72 -4 92 -15 16 -71 17 -699 19 -375 1 -689 -1 -697 -4z"/>
<path d="M3700 4297 c-36 -18 -48 -59 -26 -91 l16 -26 260 0 c291 0 294 1 288
69 -5 57 -21 61 -283 61 -165 0 -237 -4 -255 -13z"/>
<path d="M2140 3890 c-24 -24 -26 -57 -4 -88 15 -22 18 -22 273 -22 237 0 259
1 274 18 25 27 22 78 -5 96 -19 14 -62 16 -270 16 -235 0 -249 -1 -268 -20z"/>
<path d="M2800 3890 c-25 -25 -26 -72 -2 -93 17 -16 81 -17 715 -17 771 0 727
-4 727 65 0 68 33 65 -732 65 -675 0 -688 0 -708 -20z"/>
<path d="M897 3492 c-22 -25 -21 -75 1 -95 17 -16 110 -17 1129 -17 1063 0
1111 1 1126 18 22 25 21 75 -1 95 -17 16 -110 17 -1129 17 -1063 0 -1111 -1
-1126 -18z"/>
<path d="M3402 3494 c-28 -19 -29 -67 -2 -94 19 -19 33 -20 413 -20 369 0 395
1 410 18 22 25 21 75 -1 95 -17 15 -60 17 -408 17 -336 0 -393 -2 -412 -16z"/>
<path d="M896 3094 c-9 -8 -16 -31 -16 -49 0 -66 -1 -66 440 -63 374 3 392 4
406 22 19 27 18 70 -4 89 -17 15 -60 17 -415 17 -346 0 -398 -2 -411 -16z"/>
<path d="M1966 3094 c-9 -8 -16 -31 -16 -49 0 -69 -77 -65 1145 -65 1222 0
1145 -4 1145 65 0 70 89 65 -1145 65 -999 0 -1115 -2 -1129 -16z"/>
<path d="M892 2698 c-7 -7 -12 -28 -12 -48 0 -20 5 -41 12 -48 17 -17 2249
-17 2266 0 16 16 16 80 0 96 -17 17 -2249 17 -2266 0z"/>
<path d="M3397 2692 c-22 -24 -21 -65 1 -85 17 -15 60 -17 418 -17 298 0 403
3 412 12 7 7 12 28 12 48 0 20 -5 41 -12 48 -9 9 -115 12 -413 12 -377 0 -403
-1 -418 -18z"/>
<path d="M902 2304 c-15 -10 -22 -25 -22 -49 0 -67 -12 -65 429 -65 373 0 399
1 414 18 23 25 21 68 -3 92 -19 19 -33 20 -408 20 -335 0 -391 -2 -410 -16z"/>
<path d="M1972 2304 c-15 -10 -22 -25 -22 -49 0 -70 -89 -65 1145 -65 1234 0
1145 -5 1145 65 0 69 77 65 -1145 65 -980 0 -1103 -2 -1123 -16z"/>
</g>
</svg>
