<?xml version="1.0" standalone="no"?>
<!DOCTYPE svg PUBLIC "-//W3C//DTD SVG 20010904//EN"
 "http://www.w3.org/TR/2001/REC-SVG-20010904/DTD/svg10.dtd">
<svg version="1.0" xmlns="http://www.w3.org/2000/svg"
 width="3217.000000pt" height="3281.000000pt" viewBox="0 0 3217.000000 3281.000000"
 preserveAspectRatio="xMidYMid meet">
<metadata>
Created by potrace 1.16, written by Peter Selinger 2001-2019
</metadata>
<g transform="translate(0.000000,3281.000000) scale(0.100000,-0.100000)"
fill="#000000" stroke="none">
<path d="M0 16405 l0 -16405 6725 0 6725 0 0 5460 0 5460 -2520 0 -2520 0 0
2870 0 2870 2520 0 2519 0 4 2463 c4 2743 1 2630 78 3272 164 1374 612 2603
1305 3575 502 705 1136 1288 1883 1732 908 540 1995 878 3201 997 395 39 562
46 1105 45 932 0 1889 -63 3050 -200 423 -49 1241 -163 1298 -180 16 -5 17
-128 15 -2442 l-3 -2437 -1455 -6 c-1532 -6 -1491 -4 -1815 -54 -676 -105
-1214 -353 -1624 -750 -493 -477 -773 -1150 -831 -1993 -6 -98 -10 -849 -10
-2088 l0 -1934 2750 0 c1513 0 2750 -3 2750 -7 0 -12 -870 -5685 -875 -5710
l-5 -23 -2310 0 -2310 0 0 -5460 0 -5460 6260 0 6260 0 0 16405 0 16405
-16085 0 -16085 0 0 -16405z"/>
</g>
</svg>
