<?xml version="1.0" standalone="no"?>
<!DOCTYPE svg PUBLIC "-//W3C//DTD SVG 20010904//EN"
 "http://www.w3.org/TR/2001/REC-SVG-20010904/DTD/svg10.dtd">
<svg version="1.0" xmlns="http://www.w3.org/2000/svg"
 width="4096.000000pt" height="4096.000000pt" viewBox="0 0 4096.000000 4096.000000"
 preserveAspectRatio="xMidYMid meet">
<metadata>
Created by potrace 1.16, written by Peter Selinger 2001-2019
</metadata>
<g transform="translate(0.000000,4096.000000) scale(0.100000,-0.100000)"
fill="#000000" stroke="none">
<path d="M12035 38700 c-796 -34 -1516 -276 -2129 -717 -343 -247 -691 -604
-949 -975 -504 -724 -845 -1681 -1001 -2813 -238 -1721 -65 -3862 510 -6302
35 -153 81 -340 100 -417 19 -76 33 -141 30 -143 -2 -3 -125 -40 -273 -83
-1546 -448 -2959 -997 -4098 -1593 -1877 -981 -3143 -2102 -3775 -3342 -234
-460 -364 -882 -432 -1400 -20 -156 -17 -735 5 -900 116 -864 489 -1647 1159
-2432 230 -269 693 -709 1028 -977 1147 -918 2704 -1728 4625 -2406 463 -163
1157 -384 1620 -515 72 -21 133 -40 138 -44 4 -4 -26 -144 -67 -312 -618
-2526 -814 -4740 -575 -6514 151 -1122 471 -2047 964 -2785 631 -943 1551
-1537 2670 -1724 518 -87 1173 -65 1801 59 1980 392 4304 1803 6724 4081 124
117 241 229 260 249 19 20 52 50 72 67 l38 30 89 -84 c49 -46 187 -176 307
-289 1238 -1166 2524 -2153 3694 -2837 521 -304 1060 -572 1545 -770 1325
-538 2536 -690 3555 -446 1416 339 2450 1350 2986 2919 245 717 376 1447 436
2425 26 434 14 1237 -27 1810 -84 1162 -314 2539 -645 3875 -33 131 -57 242
-52 246 4 4 111 36 237 73 1544 442 3060 1033 4195 1636 1126 597 1969 1197
2652 1886 299 303 490 527 697 824 459 655 724 1337 796 2050 21 203 16 679
-9 854 -81 561 -248 1053 -521 1531 -918 1610 -2896 3007 -5820 4110 -588 222
-1293 455 -1968 651 -144 42 -263 77 -265 78 -1 2 31 140 72 307 583 2381 791
4503 611 6219 -103 987 -328 1819 -681 2530 -200 401 -397 699 -661 1000 -676
770 -1559 1210 -2608 1300 -302 25 -801 8 -1145 -40 -2125 -298 -4669 -1798
-7282 -4293 l-188 -179 -197 189 c-1822 1734 -3608 2992 -5249 3693 -1087 465
-2085 678 -2999 640z m623 -1715 c1224 -128 2691 -828 4347 -2074 677 -510
1315 -1055 2047 -1750 l226 -215 -51 -55 c-1178 -1285 -2290 -2659 -3316
-4099 -68 -94 -127 -175 -132 -178 -9 -5 -16 -6 -499 -54 -1608 -160 -3372
-442 -4923 -786 -42 -9 -80 -15 -83 -11 -7 7 -40 135 -110 432 -600 2526 -748
4681 -429 6235 93 452 212 811 385 1165 251 512 562 867 977 1111 226 133 548
240 828 273 50 6 101 13 115 15 74 10 486 4 618 -9z m16412 -9 c699 -110 1223
-464 1611 -1088 694 -1117 883 -3017 544 -5455 -70 -499 -167 -1048 -281
-1583 -92 -428 -244 -1073 -257 -1086 -3 -3 -184 33 -404 80 -1558 333 -3180
580 -4852 741 -139 13 -254 25 -255 27 -74 106 -461 641 -595 823 -839 1135
-1810 2317 -2744 3340 l-155 170 151 146 c1622 1557 3249 2731 4663 3365 621
278 1270 470 1769 523 55 6 116 13 135 15 92 10 570 -3 670 -18z m-8458 -5416
c762 -836 1590 -1829 2258 -2709 l63 -84 -169 6 c-487 20 -735 28 -1094 37
-507 13 -1871 13 -2375 0 -400 -10 -1188 -38 -1237 -43 -16 -2 -28 -2 -28 0 0
6 133 181 314 413 597 767 1233 1525 1860 2218 116 129 224 249 240 268 16 19
32 33 37 32 4 -2 63 -64 131 -138z m538 -4460 c1011 -15 1765 -46 2800 -116
129 -8 245 -17 256 -20 38 -7 635 -905 1155 -1736 835 -1335 1564 -2636 2276
-4063 137 -275 269 -541 292 -591 l43 -91 -204 -414 c-960 -1949 -2054 -3841
-3280 -5670 l-259 -387 -62 -6 c-316 -31 -1427 -90 -2242 -118 -488 -17 -2414
-17 -2885 0 -1032 37 -2292 108 -2311 130 -3 4 -80 117 -171 252 -1255 1863
-2405 3845 -3376 5819 l-193 395 37 80 c76 164 566 1140 717 1427 662 1263
1347 2445 2087 3604 474 743 893 1363 924 1370 11 2 64 6 116 10 52 3 190 12
305 20 826 57 1977 101 2795 108 140 1 316 3 390 5 74 1 430 -3 790 -8z
m-6630 -354 c0 -3 -82 -134 -183 -293 -607 -953 -1178 -1923 -1717 -2913 -183
-336 -467 -872 -516 -972 -16 -32 -31 -58 -34 -58 -3 0 -20 37 -39 83 -373
907 -575 1427 -811 2092 -175 493 -477 1401 -469 1410 6 5 532 118 818 175
953 189 1687 310 2786 459 165 22 165 22 165 17z m12157 -26 c967 -128 1873
-279 2793 -465 372 -76 732 -154 738 -160 5 -4 -165 -527 -298 -920 -246 -724
-582 -1615 -905 -2395 -127 -307 -113 -284 -142 -224 -54 107 -334 634 -481
904 -574 1058 -1234 2175 -1838 3116 -97 150 -111 174 -100 174 2 0 107 -14
233 -30z m-17522 -1307 c526 -1629 1149 -3233 1830 -4708 86 -188 96 -213 87
-240 -6 -16 -53 -123 -106 -238 -656 -1424 -1327 -3151 -1796 -4622 -51 -159
-96 -294 -100 -299 -13 -14 -682 185 -1215 362 -2814 935 -4817 2146 -5670
3427 -261 392 -407 763 -455 1158 -18 143 -8 461 19 603 149 794 732 1577
1733 2329 1208 909 3027 1739 5221 2386 298 87 354 104 364 108 1 1 41 -119
88 -266z m22990 192 c2701 -781 4845 -1852 6024 -3009 592 -582 931 -1147
1042 -1740 27 -142 37 -460 19 -603 -103 -844 -698 -1678 -1762 -2471 -995
-742 -2352 -1416 -4023 -1999 -592 -206 -1537 -496 -1555 -476 -4 4 -22 55
-40 113 -435 1416 -1144 3250 -1875 4850 -52 114 -95 211 -95 217 0 6 21 55
46 109 677 1451 1324 3110 1864 4771 66 203 105 311 113 308 7 -2 116 -34 242
-70z m-20001 -7278 c721 -1383 1531 -2783 2300 -3976 34 -53 66 -102 70 -110
7 -11 -1 -12 -40 -7 -1038 133 -1935 276 -2824 451 -414 82 -890 182 -898 190
-6 5 119 396 240 755 279 826 599 1684 903 2420 65 157 129 313 143 348 14 34
28 62 31 62 3 0 37 -60 75 -133z m16805 5 c238 -568 586 -1468 804 -2082 224
-630 463 -1358 450 -1371 -4 -4 -42 -14 -83 -23 -41 -8 -212 -44 -380 -80
-755 -160 -1683 -325 -2486 -440 -372 -54 -784 -107 -799 -104 -10 2 11 42 64
123 694 1070 1564 2567 2201 3788 91 174 167 316 170 317 3 0 29 -57 59 -128z
m-18334 -5186 c1611 -345 3218 -592 4883 -752 l283 -28 82 -115 c918 -1302
2057 -2723 3131 -3909 122 -134 234 -260 251 -279 l29 -36 -135 -131 c-481
-466 -1092 -1004 -1624 -1430 -1362 -1092 -2638 -1844 -3770 -2222 -548 -183
-995 -264 -1455 -264 -957 0 -1634 409 -2109 1276 -325 592 -521 1395 -593
2424 -17 242 -17 1127 0 1395 78 1245 273 2473 608 3837 72 294 77 308 97 303
12 -3 157 -34 322 -69z m20149 -233 c311 -1268 513 -2498 590 -3588 53 -749
44 -1514 -24 -2115 -195 -1704 -831 -2775 -1850 -3114 -269 -90 -483 -121
-830 -120 -272 0 -423 13 -680 60 -1349 244 -3037 1176 -4805 2653 -443 370
-1163 1019 -1414 1275 l-65 65 20 23 c10 12 90 101 177 196 1117 1230 2209
2588 3174 3948 l122 172 78 6 c1173 104 2527 287 3773 512 336 60 1195 232
1470 293 96 22 178 40 182 40 3 1 40 -137 82 -306z m-12119 -728 c934 -34
1900 -43 2780 -25 487 10 1228 35 1409 47 l100 6 -25 -34 c-138 -194 -795
-1021 -1139 -1434 -397 -476 -872 -1021 -1189 -1364 l-106 -113 -25 29 c-14
17 -124 140 -245 274 -656 727 -1316 1515 -1911 2284 -238 309 -264 343 -264
351 0 3 48 4 108 0 59 -3 287 -13 507 -21z"/>
<path d="M20300 24129 c-1483 -58 -2811 -1062 -3285 -2482 -130 -390 -186
-741 -186 -1167 0 -490 79 -912 253 -1350 466 -1175 1507 -2024 2757 -2249
397 -72 903 -70 1305 4 1398 258 2524 1307 2876 2679 128 501 148 1075 55
1580 -256 1388 -1279 2496 -2645 2866 -359 98 -714 135 -1130 119z"/>
</g>
</svg>
