<?xml version="1.0" standalone="no"?>
<!DOCTYPE svg PUBLIC "-//W3C//DTD SVG 20010904//EN"
 "http://www.w3.org/TR/2001/REC-SVG-20010904/DTD/svg10.dtd">
<svg version="1.0" xmlns="http://www.w3.org/2000/svg"
 width="512.000000pt" height="512.000000pt" viewBox="0 0 512.000000 512.000000"
 preserveAspectRatio="xMidYMid meet">
<metadata>
Created by potrace 1.16, written by Peter Selinger 2001-2019
</metadata>
<g transform="translate(0.000000,512.000000) scale(0.100000,-0.100000)"
fill="#000000" stroke="none">
<path d="M3014 5110 c-8 -8 -10 -47 -6 -121 8 -173 -24 -316 -104 -469 -49
-94 -124 -163 -375 -345 -112 -81 -239 -177 -281 -212 -215 -179 -370 -402
-406 -585 -38 -192 35 -422 209 -658 77 -105 348 -377 385 -386 37 -9 59 7 58
42 -1 16 -26 85 -56 154 -109 245 -174 463 -198 654 -27 211 1 250 430 608
335 279 466 438 529 642 56 182 26 419 -78 612 -32 59 -42 69 -67 72 -16 2
-34 -2 -40 -8z"/>
<path d="M3380 4016 c-488 -219 -771 -438 -856 -661 -15 -39 -19 -72 -17 -155
4 -190 56 -330 185 -501 116 -151 118 -156 118 -213 0 -60 -20 -142 -56 -233
-21 -53 -24 -70 -15 -89 17 -38 52 -30 118 25 252 210 338 442 248 666 -15 39
-61 122 -102 186 -40 64 -81 138 -89 164 -54 156 67 322 479 660 95 77 157
135 157 146 0 62 -40 64 -170 5z"/>
<path d="M3955 2421 c-72 -12 -161 -39 -233 -72 -61 -27 -63 -30 -60 -61 4
-38 11 -41 141 -58 251 -31 375 -166 297 -321 -57 -110 -234 -292 -408 -418
-56 -41 -104 -83 -108 -94 -4 -12 1 -27 14 -40 20 -19 25 -20 79 -8 32 8 109
31 172 52 294 99 490 238 572 404 32 65 34 76 34 170 0 118 -17 181 -72 273
-45 74 -104 123 -180 152 -62 23 -174 33 -248 21z"/>
<path d="M1675 2350 c-228 -17 -419 -60 -521 -119 -39 -23 -57 -42 -74 -76
-82 -168 122 -302 540 -355 262 -33 796 -30 1079 5 314 39 620 129 800 235 84
49 101 64 101 94 0 49 -20 51 -168 22 -255 -49 -523 -74 -937 -84 -437 -12
-934 13 -968 47 -19 19 184 96 343 131 30 7 65 19 78 26 24 16 29 53 10 72
-13 13 -116 14 -283 2z"/>
<path d="M1659 1745 c-152 -46 -226 -101 -236 -173 -10 -78 56 -142 203 -195
284 -102 688 -118 1199 -46 213 30 597 109 617 127 24 21 22 44 -4 69 -47 43
-212 153 -230 153 -10 0 -84 -13 -165 -30 -252 -51 -436 -71 -704 -77 -299 -7
-554 15 -624 54 -17 10 -14 13 23 37 34 21 42 32 42 56 0 19 -7 33 -19 40 -11
5 -21 10 -23 9 -2 0 -37 -11 -79 -24z"/>
<path d="M1762 1215 c-127 -28 -192 -88 -192 -178 0 -56 16 -90 62 -134 98
-94 379 -157 759 -170 323 -11 637 37 901 139 63 24 79 34 84 55 5 17 1 30
-12 43 -37 35 -270 170 -295 170 -14 0 -124 -16 -245 -35 -184 -29 -245 -35
-379 -35 -201 0 -502 33 -545 60 -11 7 -11 11 -1 24 18 22 6 62 -21 70 -30 8
-42 7 -116 -9z"/>
<path d="M1250 853 c-295 -26 -493 -83 -560 -160 -25 -28 -30 -42 -30 -84 0
-213 288 -310 1045 -350 275 -14 984 -6 1215 15 707 63 1194 200 1277 359 41
80 -37 222 -112 203 -26 -7 -39 -41 -25 -67 17 -30 1 -47 -68 -73 -201 -77
-647 -149 -1152 -187 -200 -15 -793 -15 -980 0 -389 31 -716 84 -797 129 -14
8 -10 13 23 30 50 26 220 77 304 93 36 6 73 16 83 21 24 12 23 64 -2 78 -23
12 -18 12 -221 -7z"/>
<path d="M4301 520 c-206 -156 -542 -261 -961 -301 -158 -15 -1315 -23 -1645
-11 -166 6 -277 6 -287 1 -25 -13 -24 -65 2 -79 57 -30 578 -101 893 -121 267
-17 831 -6 1067 20 471 53 683 107 846 218 121 82 219 222 198 282 -15 41 -50
38 -113 -9z"/>
</g>
</svg>
