<?xml version="1.0" standalone="no"?>
<!DOCTYPE svg PUBLIC "-//W3C//DTD SVG 20010904//EN"
 "http://www.w3.org/TR/2001/REC-SVG-20010904/DTD/svg10.dtd">
<svg version="1.0" xmlns="http://www.w3.org/2000/svg"
 width="245.000000pt" height="248.000000pt" viewBox="0 0 245.000000 248.000000"
 preserveAspectRatio="xMidYMid meet">
<metadata>
Created by potrace 1.16, written by Peter Selinger 2001-2019
</metadata>
<g transform="translate(0.000000,248.000000) scale(0.100000,-0.100000)"
fill="#000000" stroke="none">
<path d="M0 1240 l0 -1240 1225 0 1225 0 0 1240 0 1240 -1225 0 -1225 0 0
-1240z m605 841 c83 -38 128 -108 127 -197 -1 -163 -174 -261 -318 -181 -113
64 -138 224 -51 324 61 69 161 92 242 54z m1180 -556 c123 -32 212 -106 269
-225 l31 -65 0 -455 0 -455 -174 -3 c-133 -2 -176 1 -183 10 -4 7 -8 173 -8
369 0 353 0 356 -23 400 -13 24 -43 58 -66 74 -38 27 -51 30 -114 30 -62 0
-78 -4 -113 -28 -22 -15 -51 -46 -65 -70 -24 -42 -24 -43 -29 -412 l-5 -370
-180 0 -180 0 0 590 0 590 175 0 175 0 5 -73 5 -72 43 50 c48 56 114 98 181
116 64 18 186 17 256 -1z m-1099 -36 c18 -20 19 -46 22 -558 1 -295 0 -546 -3
-558 -12 -49 -26 -53 -182 -53 -122 0 -149 3 -165 17 -17 15 -18 46 -18 579
l0 563 22 15 c18 13 52 16 164 16 131 0 142 -2 160 -21z"/>
</g>
</svg>
