<?xml version="1.0" standalone="no"?>
<!DOCTYPE svg PUBLIC "-//W3C//DTD SVG 20010904//EN"
 "http://www.w3.org/TR/2001/REC-SVG-20010904/DTD/svg10.dtd">
<svg version="1.0" xmlns="http://www.w3.org/2000/svg"
 width="876.000000pt" height="980.000000pt" viewBox="0 0 876.000000 980.000000"
 preserveAspectRatio="xMidYMid meet">
<metadata>
Created by potrace 1.16, written by Peter Selinger 2001-2019
</metadata>
<g transform="translate(0.000000,980.000000) scale(0.100000,-0.100000)"
fill="#000000" stroke="none">
<path d="M4030 9793 c-1145 -49 -2127 -277 -2884 -666 -650 -335 -1036 -746
-1122 -1195 -20 -105 -18 -278 5 -388 182 -880 1589 -1615 3441 -1798 329 -33
488 -40 905 -40 531 0 819 19 1288 85 1163 164 2149 564 2672 1083 363 361
493 747 384 1146 -29 105 -115 279 -189 383 -603 840 -2312 1410 -4190 1395
-135 -1 -274 -3 -310 -5z"/>
<path d="M0 5803 c0 -486 4 -917 10 -979 22 -254 125 -475 329 -709 436 -502
1331 -917 2411 -1119 204 -38 498 -81 505 -74 2 2 11 51 19 109 61 430 231
845 527 1284 85 127 275 371 318 409 l21 19 0 -946 0 -947 120 -2 c66 -1 137
-2 158 -2 l37 -1 5 1040 5 1040 171 -170 c191 -190 297 -318 423 -511 247
-374 409 -832 437 -1229 4 -52 10 -97 13 -99 3 -2 78 7 166 20 1011 149 1880
466 2436 889 126 97 315 282 393 386 117 158 193 318 227 484 18 84 19 151 19
1033 l0 943 -97 -90 c-860 -797 -2450 -1270 -4269 -1271 -1807 -1 -3377 463
-4261 1259 -62 56 -115 101 -118 101 -3 0 -5 -390 -5 -867z"/>
<path d="M3 2874 c4 -1053 0 -992 67 -1175 80 -223 272 -472 515 -669 358
-291 912 -557 1523 -731 522 -148 1027 -233 1677 -281 352 -26 1086 -14 1465
23 1183 117 2205 450 2840 927 128 96 351 313 420 409 114 158 188 319 221
478 18 84 19 151 19 1029 l0 938 -84 -80 c-373 -353 -908 -653 -1556 -873
-417 -142 -874 -250 -1330 -314 -102 -14 -207 -29 -235 -33 -50 -7 -50 -7 -53
-47 -6 -97 -45 -321 -76 -440 -105 -405 -291 -731 -577 -1015 -203 -201 -218
-235 -226 -507 l-6 -183 -153 0 -154 0 0 140 c0 156 15 248 60 371 35 97 76
270 90 379 6 49 10 323 10 662 l0 578 -132 0 c-73 0 -143 3 -155 6 l-23 6 0
-558 c0 -317 -4 -585 -10 -619 -5 -33 -27 -120 -47 -193 -37 -130 -38 -133
-62 -127 -34 9 -86 51 -161 131 -337 361 -544 810 -603 1310 l-12 108 -130 17
c-1092 143 -2052 476 -2706 940 -121 85 -194 145 -322 262 l-98 90 4 -959z"/>
</g>
</svg>
