<?xml version="1.0" standalone="no"?>
<!DOCTYPE svg PUBLIC "-//W3C//DTD SVG 20010904//EN"
 "http://www.w3.org/TR/2001/REC-SVG-20010904/DTD/svg10.dtd">
<svg version="1.0" xmlns="http://www.w3.org/2000/svg"
 width="239.000000pt" height="217.000000pt" viewBox="0 0 239.000000 217.000000"
 preserveAspectRatio="xMidYMid meet">
<metadata>
Created by potrace 1.16, written by Peter Selinger 2001-2019
</metadata>
<g transform="translate(0.000000,217.000000) scale(0.100000,-0.100000)"
fill="#000000" stroke="none">
<path d="M1530 1948 c161 -43 255 -85 335 -149 94 -75 112 -162 52 -241 -39
-51 -111 -101 -187 -128 -30 -11 -64 -24 -75 -29 -31 -14 -143 -40 -225 -53
-42 -7 -176 -12 -303 -13 -125 0 -227 -3 -227 -6 0 -3 58 -9 129 -13 134 -7
308 -1 401 15 107 18 165 30 185 39 11 4 33 11 49 15 50 11 198 87 236 121 20
19 40 31 44 27 3 -3 6 -53 6 -110 0 -87 2 -103 16 -103 14 0 15 22 12 188 -3
183 -4 188 -29 227 -39 59 -131 133 -189 150 -14 4 -38 13 -55 21 -59 26 -155
54 -182 53 -26 -1 -26 -2 7 -11z"/>
<path d="M1840 1144 c-28 -9 -78 -13 -135 -12 -71 2 -99 -1 -133 -16 -40 -18
-45 -18 -109 -2 -231 56 -335 -41 -304 -284 12 -93 24 -135 78 -275 71 -184
122 -207 204 -94 42 59 62 69 103 53 29 -11 17 -33 -39 -69 -30 -19 -55 -42
-55 -50 0 -25 49 -37 123 -30 l67 6 0 -68 c0 -125 31 -180 108 -190 115 -15
192 85 192 252 l0 61 68 0 c75 0 134 22 159 61 24 36 3 53 -68 53 -42 0 -59 4
-59 13 0 8 17 54 39 103 51 118 73 197 75 264 2 107 -65 189 -183 224 -64 19
-71 19 -131 0z m146 -30 c92 -38 144 -106 144 -188 0 -74 -92 -327 -115 -316
-6 3 -10 65 -10 150 -1 172 -9 195 -107 291 -48 48 -58 63 -47 70 22 14 93 10
135 -7z m-511 -28 l26 -17 -21 -30 c-31 -43 -41 -84 -40 -174 0 -44 -5 -108
-12 -142 -12 -63 -9 -79 23 -160 12 -30 11 -34 -30 -87 -67 -87 -96 -74 -154
64 -53 129 -89 254 -94 335 -5 69 -2 88 17 133 15 35 36 62 59 78 33 24 43 25
119 21 53 -3 91 -11 107 -21z m341 -4 c41 -21 112 -91 134 -131 17 -33 7 -47
-38 -54 -58 -10 -66 -25 -59 -110 7 -74 30 -136 74 -195 14 -18 22 -38 18 -45
-3 -7 -12 -23 -20 -37 -10 -17 -15 -55 -15 -116 0 -164 -47 -254 -132 -254
-91 0 -109 36 -111 217 -2 134 -2 135 -29 157 -34 26 -34 32 -3 126 40 120 30
192 -34 237 -18 12 -36 14 -83 9 l-61 -7 6 53 c8 63 47 123 103 156 35 20 49
22 124 19 59 -3 97 -11 126 -25z m160 -345 c0 -162 -9 -173 -63 -67 -40 78
-46 149 -12 157 13 4 18 11 14 21 -7 19 13 33 40 30 19 -3 20 -11 21 -141z
m-432 97 c-6 -25 -5 -26 35 -23 71 5 76 -20 30 -168 -31 -99 -34 -103 -61
-103 -40 0 -87 46 -95 92 -3 20 -2 71 2 113 8 85 26 115 70 115 22 0 25 -3 19
-26z"/>
<path d="M326 758 c-4 -20 -6 -101 -4 -181 2 -121 6 -148 21 -164 9 -11 17
-24 17 -29 1 -18 108 -94 176 -125 114 -51 158 -64 314 -96 181 -36 660 -18
660 25 0 11 -8 13 -32 8 -106 -22 -209 -28 -392 -23 -210 5 -322 22 -451 67
-33 12 -69 24 -79 27 -26 8 -83 41 -132 78 -74 53 -78 67 -84 270 -4 129 -7
170 -14 143z"/>
</g>
</svg>
